<svg xmlns="http://www.w3.org/2000/svg" viewBox="0 0 96 96" role="img" aria-labelledby="title desc">
  <title id="title">Gotiqa ram head logo</title>
  <desc id="desc">A stylized ram head mark for Gotiqa Farm.</desc>
  <circle cx="48" cy="48" r="46" fill="#f4eed8"/>
  <path fill="#8a5f28" d="M28 18c-11 0-19 8-19 18 0 9 6 16 15 17 4 1 7-2 7-6 0-3-2-5-5-6-4-1-7-4-7-8 0-5 4-9 9-9 4 0 8 2 10 6 1-6-4-12-10-12Zm40 0c-6 0-11 6-10 12 2-4 6-6 10-6 5 0 9 4 9 9 0 4-3 7-7 8-3 1-5 3-5 6 0 4 3 7 7 6 9-1 15-8 15-17 0-10-8-18-19-18Z"/>
  <path fill="#3b6a35" d="M48 25c-13 0-23 10-23 24 0 16 10 30 23 30s23-14 23-30c0-14-10-24-23-24Z"/>
  <path fill="#f4eed8" d="M35 47c0-8 5-14 13-14s13 6 13 14v16c0 6-5 11-13 11s-13-5-13-11V47Z"/>
  <path fill="#2f3328" d="M39 50c0-2 2-4 4-4s4 2 4 4-2 4-4 4-4-2-4-4Zm10 0c0-2 2-4 4-4s4 2 4 4-2 4-4 4-4-2-4-4Z"/>
  <path fill="#8a5f28" d="M43 62c2 2 8 2 10 0 1-1 3 1 2 3-2 3-5 5-7 5s-5-2-7-5c-1-2 1-4 2-3Z"/>
  <path fill="#3b6a35" d="M31 29c6 1 11 5 13 11-6-2-11-5-13-11Zm34 0c-2 6-7 9-13 11 2-6 7-10 13-11Z" opacity=".35"/>
</svg>
