<svg xmlns="http://www.w3.org/2000/svg" viewBox="0 0 32 32" role="img" aria-labelledby="title">
  <title id="title">TikTok</title>
  <circle cx="16" cy="16" r="16" fill="#101010"/>
  <path fill="#25f4ee" d="M21.7 12.1c-1.5-.4-2.7-1.3-3.5-2.6v11.2c0 3.2-2.6 5.8-5.8 5.8-1.5 0-2.9-.6-4-1.5 1.1 1.5 2.9 2.5 4.9 2.5 3.2 0 5.8-2.6 5.8-5.8V13c1 .7 2.3 1.1 3.6 1.1v-1.8c-.3 0-.7-.1-1-.2Z"/>
  <path fill="#fe2c55" d="M19.1 8.2c.8 1.6 2.4 2.8 4.3 3v3c-1.4 0-2.6-.4-3.6-1.1v8.7c0 3.2-2.6 5.8-5.8 5.8-2 0-3.8-1-4.9-2.5 1 .6 2.1.9 3.3.9 3.2 0 5.8-2.6 5.8-5.8V8.2h.9Z"/>
  <path fill="#fff" d="M18.2 8.2v12c0 3.2-2.6 5.8-5.8 5.8s-5.8-2.6-5.8-5.8 2.6-5.8 5.8-5.8c.4 0 .8 0 1.2.1v3.2c-.4-.1-.8-.2-1.2-.2-1.5 0-2.7 1.2-2.7 2.7s1.2 2.7 2.7 2.7 2.7-1.2 2.7-2.7v-12h3.1Zm.9 0c.5 1.6 1.7 2.9 3.3 3.6.3.1.7.2 1 .2v3c-1.9 0-3.7-.7-5.2-1.9V8.2h.9Z"/>
</svg>
