<svg xmlns="http://www.w3.org/2000/svg" viewBox="0 0 32 32" role="img" aria-labelledby="title">
  <title id="title">Google</title>
  <circle cx="16" cy="16" r="16" fill="#fff"/>
  <path fill="#4285f4" d="M25.5 16.2c0-.7-.1-1.3-.2-1.9H16v3.7h5.3c-.2 1.2-.9 2.3-2 3v2.4h3.2c1.9-1.8 3-4.3 3-7.2Z"/>
  <path fill="#34a853" d="M16 26c2.7 0 5-.9 6.6-2.5L19.4 21c-.9.6-2 .9-3.4.9-2.6 0-4.8-1.8-5.6-4.1H7.1v2.5A10 10 0 0 0 16 26Z"/>
  <path fill="#fbbc04" d="M10.4 17.8a6 6 0 0 1 0-3.6v-2.5H7.1a10 10 0 0 0 0 8.7l3.3-2.6Z"/>
  <path fill="#ea4335" d="M16 10.1c1.5 0 2.8.5 3.8 1.5l2.8-2.8A9.5 9.5 0 0 0 16 6a10 10 0 0 0-8.9 5.7l3.3 2.5c.8-2.3 3-4.1 5.6-4.1Z"/>
</svg>
