<svg xmlns="http://www.w3.org/2000/svg" viewBox="0 0 32 32" role="img" aria-labelledby="title">
  <title id="title">WhatsApp</title>
  <circle cx="16" cy="16" r="16" fill="#25d366"/>
  <path fill="#fff" d="M16.1 6.6a9.2 9.2 0 0 0-7.8 14.1L7.1 26l5.4-1.2a9.2 9.2 0 1 0 3.6-18.2Zm0 2a7.2 7.2 0 0 1 0 14.4c-1.1 0-2.2-.3-3.2-.8l-.4-.2-2.5.6.6-2.5-.3-.4a7.2 7.2 0 0 1 5.8-11.1Zm-3.2 3.8c-.2 0-.4 0-.6.3-.2.2-.8.8-.8 2s.9 2.3 1 2.5c.1.1 1.8 2.8 4.5 3.8 2.2.9 2.6.6 3.1.6.5-.1 1.5-.7 1.8-1.3.2-.6.2-1.1.1-1.2-.1-.1-.3-.2-.6-.4l-1.8-.8c-.3-.1-.5-.2-.7.2l-.8 1c-.1.2-.3.2-.6.1-.3-.1-1.1-.4-2-1.2-.8-.7-1.3-1.5-1.5-1.8-.2-.3 0-.4.1-.6l.4-.5c.1-.2.2-.3.3-.5.1-.2 0-.4 0-.5l-.8-1.9c-.2-.5-.4-.5-.6-.5h-.5Z"/>
</svg>
