<svg xmlns="http://www.w3.org/2000/svg" viewBox="0 0 32 32" role="img" aria-labelledby="title">
  <title id="title">Apple</title>
  <circle cx="16" cy="16" r="16" fill="#111"/>
  <path fill="#fff" d="M20.9 16.6c0-2.6 2.1-3.8 2.2-3.9-1.2-1.8-3.1-2-3.8-2-1.6-.2-3.1 1-3.9 1-.8 0-2-.9-3.3-.9-1.7 0-3.3 1-4.2 2.5-1.8 3.2-.5 7.9 1.3 10.5.9 1.3 1.9 2.7 3.3 2.6 1.3-.1 1.8-.8 3.4-.8 1.6 0 2.1.8 3.4.8 1.4 0 2.4-1.3 3.2-2.6 1-1.5 1.4-3 1.4-3.1-.1 0-3-1.1-3-4.1ZM18.3 9c.7-.8 1.1-1.9 1-3-.9 0-2 .6-2.7 1.4-.6.7-1.2 1.9-1 3 .9.1 2-.5 2.7-1.4Z"/>
</svg>
